<svg xmlns="http://www.w3.org/2000/svg" viewBox="0 0 5220.41 5220.41"><g id="Layer_1" data-name="Layer 1"><rect x="-3.91" y="-3.91" width="5228.23" height="5228.23"/><path d="M2212.55,2722.12a16.23,16.23,0,0,1-16.23-16.23V2105.55h-81.13a16.24,16.24,0,0,1-9.93-29.06l503-389.41a16.22,16.22,0,0,1,19.87,0l503,389.41a16.23,16.23,0,0,1-9.93,29.06h-81.13v243.38a16.23,16.23,0,0,1-32.45,0V2089.32a16.22,16.22,0,0,1,16.23-16.22h49.89l-455.53-352.67L2162.66,2073.1h49.89a16.22,16.22,0,0,1,16.22,16.22v616.57A16.23,16.23,0,0,1,2212.55,2722.12Z" fill="#fff"/><path d="M3023.81,2105.55a16.22,16.22,0,0,1-9.86-3.35l-395.76-303.35L2222.42,2102.2a16.23,16.23,0,0,1-19.74-25.76l405.64-310.91a16.23,16.23,0,0,1,19.74,0l405.64,310.91a16.23,16.23,0,0,1-9.89,29.11Z" fill="#fff"/><path d="M3088.73,2722.12H2147.65a16.23,16.23,0,1,1,0-32.45h941.08a16.23,16.23,0,0,1,0,32.45Z" fill="#fff"/><path d="M2423.48,2657.21h-81.13a81.22,81.22,0,0,1-81.13-81.12V2462.51c0-61.76,33.14-106.58,86.49-117l.47-.08,54.32-9a8.12,8.12,0,0,0,4.75-2.2v-35.45a16.23,16.23,0,0,1,32.46,0v35.78c0,19.22-16.22,31.62-32.24,33.94l-53.77,8.85c-37.59,7.45-60,39.24-60,85.1v113.58a48.73,48.73,0,0,0,48.67,48.67h81.13a16.23,16.23,0,1,1,0,32.45Z" fill="#fff"/><path d="M2699.31,2495a16.23,16.23,0,0,1-16.22-16.23v-16.22c0-45.86-22.44-77.65-60-85.1l-54.08-8.9c-15.71-2.28-31.93-14.68-31.93-33.9v-35.77a16.23,16.23,0,1,1,32.45,0v35.45a7.91,7.91,0,0,0,4.45,2.15l54.62,9,.47.09c53.35,10.42,86.49,55.24,86.49,117v16.22A16.23,16.23,0,0,1,2699.31,2495Z" fill="#fff"/><path d="M2537.06,2154.22a16.19,16.19,0,0,1-11.48-4.75l-6.83-6.83c-16.43,8-41.41,11.58-79,11.58H2374.8a16.23,16.23,0,0,1,0-32.45h64.91c47.84,0,64.36-6.31,69.79-11.62a16.22,16.22,0,0,1,22.8.15l16.23,16.22a16.23,16.23,0,0,1-11.47,27.7Z" fill="#fff"/><path d="M2488.38,2332.7a130,130,0,0,1-129.8-129.8V2138c0-71.58,58.23-129.81,129.8-129.81A130,130,0,0,1,2618.19,2138v64.9C2618.19,2274.47,2560,2332.7,2488.38,2332.7Zm0-292.06A97.47,97.47,0,0,0,2391,2138v64.9a97.36,97.36,0,0,0,194.71,0V2138A97.48,97.48,0,0,0,2488.38,2040.64Z" fill="#fff"/><path d="M2488.38,2413.83c-39,0-81.13-31-81.13-81.13a16.23,16.23,0,0,1,32.46,0c0,30.07,25.26,48.68,48.67,48.68s48.68-18.61,48.68-48.68a16.23,16.23,0,0,1,32.45,0C2569.51,2382.81,2527.4,2413.83,2488.38,2413.83Z" fill="#fff"/><path d="M3023.83,2657.21h-503a48.73,48.73,0,0,1-48.67-48.67v-32.45a16.23,16.23,0,0,1,16.22-16.23h178.48a16.23,16.23,0,1,1,0,32.45H2504.61v16.23a16.24,16.24,0,0,0,16.22,16.22h167.78l93.14-217.32a16.23,16.23,0,0,1,14.92-9.83h324.51a16.2,16.2,0,0,1,14.91,22.61l-97.35,227.16A16.2,16.2,0,0,1,3023.83,2657.21Zm-299.91-32.45h289.2l83.45-194.7H2807.36l-83.44,194.7Z" fill="#fff"/><path d="M2423.48,2559.86H2374.8a16.22,16.22,0,0,1-16.22-16.22v-64.91a16.23,16.23,0,0,1,32.45,0v48.68h32.45a16.23,16.23,0,1,1,0,32.45Z" fill="#fff"/><path id="id-6izo4zJp26" d="M1381.92,3376.52h19.78v123.05h-19.78Zm156,48.34q10.47,0,16.65,5.92t6.51,15.55h0v53.24h-18.77v-46c-.22-3.83-1.07-6.78-2.53-8.87s-3.89-3.24-7.27-3.46h0q-8.79,0-14.21,7.86a32.53,32.53,0,0,0-5.57,18.34h0v32.11h-19.11v-46a16.69,16.69,0,0,0-2.62-8.78q-2.28-3.22-7.52-3.55h0a15.3,15.3,0,0,0-10.15,3.71,24.54,24.54,0,0,0-6.84,9.81,33.47,33.47,0,0,0-2.45,12.68h0v32.11h-18.94v-71.5h17.08l1.52,12.51a28.87,28.87,0,0,1,11-11.66,30.82,30.82,0,0,1,15.89-4.06h0q8.63,0,14.45,3.8a18,18,0,0,1,7.7,10.91h0a31.94,31.94,0,0,1,11.15-10.82,27.83,27.83,0,0,1,14-3.89Zm109.72,0a35.29,35.29,0,0,1,18.09,4.73,32.82,32.82,0,0,1,12.68,13.52,43.83,43.83,0,0,1,4.56,20.46h0a39.37,39.37,0,0,1-5,20.11,33.26,33.26,0,0,1-13.86,13.19,43.19,43.19,0,0,1-20,4.56h0a34,34,0,0,1-13.7-2.87,29.77,29.77,0,0,1-10.82-7.78h0v43.1h-18.93V3426.72h16.4l1.69,10.65a42.73,42.73,0,0,1,12.93-9.13,37.84,37.84,0,0,1,16-3.38Zm-7.27,61.53a23.72,23.72,0,0,0,20.12-11,21,21,0,0,0,3.21-11.49h0q0-10-6.34-16.48a21,21,0,0,0-15.64-6.51h0a23.38,23.38,0,0,0-14,4,22.72,22.72,0,0,0-8.2,11.33h0v14.37A19.93,19.93,0,0,0,1627,3482a21.26,21.26,0,0,0,13.44,4.4ZM1774,3428.07h17.41v71.5h-18.93v-10.31a39.8,39.8,0,0,1-10.49,8.37,30.27,30.27,0,0,1-15.38,3.8h0a38.71,38.71,0,0,1-18.43-4.31,31.5,31.5,0,0,1-12.85-12.76q-4.72-8.46-4.73-20.45h0a41.74,41.74,0,0,1,4.9-20.54,34.86,34.86,0,0,1,31.11-18.51h0q17.42,0,26,12.85h0Zm-22.15,57.81a20.22,20.22,0,0,0,20.63-15.21h0v-15.55a19.77,19.77,0,0,0-7.87-10.65,22.88,22.88,0,0,0-13.44-4.06h0a20.55,20.55,0,0,0-15.21,6.34q-6.26,6.33-6.26,16.14h0a23.06,23.06,0,0,0,11.16,20,21,21,0,0,0,11,3Zm138.46,7.1a35.84,35.84,0,0,1-11.58,6.17,43.36,43.36,0,0,1-13.78,2.28h0a45.78,45.78,0,0,1-20.88-4.56,32.64,32.64,0,0,1-13.94-13.1,39.51,39.51,0,0,1-4.91-20h0a37.22,37.22,0,0,1,5.24-19.86,35.4,35.4,0,0,1,14-13.1,39.58,39.58,0,0,1,18.68-4.57h0q16.9,0,27.9,9.13h0l-9.47,12.34a31.21,31.21,0,0,0-7.52-4.31,24.07,24.07,0,0,0-9.22-1.78h0a19.4,19.4,0,0,0-14.62,6.34,22.12,22.12,0,0,0-6,15.81h0a21.42,21.42,0,0,0,6.34,15.8q6.33,6.35,16.14,6.34h0a21.61,21.61,0,0,0,14.2-4.73h0Zm39.9-96.35h18.94v31.44h18.59V3443h-18.59v56.62h-18.94V3443h-12.34v-14.88h12.34Zm75.91,102.94v-54.93h-12.17V3427.9h12.17v-28.06q0-15,7.61-23.49t21.81-8.45h0a36.88,36.88,0,0,1,9.13,1.26,27.74,27.74,0,0,1,8.45,3.64h0l-7.95,13.69a10,10,0,0,0-7.6-3h0q-12.51,0-12.51,16.9h0v27.55h22.31v16.74H2025v54.93Zm125.11-71.5h18.93v71.5h-17.07l-1.19-12.85a28.14,28.14,0,0,1-11,11.58,31.78,31.78,0,0,1-16.56,4.31h0q-9.81,0-16.32-6a20.63,20.63,0,0,1-6.68-15.46h0v-53.08h18.94v46.32q.51,11.82,11.66,12h0q8.3,0,13.78-7.61t5.5-19.1h0Zm58.66-60.34h18.94v131.84h-18.94Zm121.22,8.79h82.33v18.93h-31.78v104.12H2342V3395.45h-30.94ZM2445,3485.2q7.94,0,16.06-5.57h0l8.62,14a56.21,56.21,0,0,1-12.34,5.66,41.46,41.46,0,0,1-12.68,2.11h0q-12.34,0-21.39-4.9A34.13,34.13,0,0,1,2409.4,3483a39.88,39.88,0,0,1-4.82-19.78h0A36,36,0,0,1,2410,3444,39.38,39.38,0,0,1,2424.7,3430a41.22,41.22,0,0,1,20.29-5.15h0q14.53,0,24.17,8.54t12.85,24.08h0l-55.11,18.6a19.16,19.16,0,0,0,7.6,6.76,23.23,23.23,0,0,0,10.49,2.36Zm-1.53-45.47a18.83,18.83,0,0,0-14.62,6.26q-5.67,6.26-5.66,16.23h0a17.76,17.76,0,0,0,.17,2.87h0l37.53-13.35a21.51,21.51,0,0,0-6.43-8.63q-4.22-3.37-11-3.38Zm128.15-11.66H2589v71.5h-18.94v-10.31a39.58,39.58,0,0,1-10.48,8.37,30.3,30.3,0,0,1-15.38,3.8h0a38.71,38.71,0,0,1-18.43-4.31,31.5,31.5,0,0,1-12.85-12.76q-4.74-8.46-4.73-20.45h0a41.74,41.74,0,0,1,4.9-20.54,34.86,34.86,0,0,1,31.11-18.51h0q17.4,0,26,12.85h0Zm-22.14,57.81a20.2,20.2,0,0,0,20.62-15.21h0v-15.55a19.7,19.7,0,0,0-7.86-10.65,22.93,22.93,0,0,0-13.44-4.06h0a20.59,20.59,0,0,0-15.22,6.34q-6.26,6.33-6.25,16.14h0a23,23,0,0,0,11.16,20,21,21,0,0,0,11,3Zm138.46,7.1a36,36,0,0,1-11.58,6.17,43.41,43.41,0,0,1-13.78,2.28h0a45.78,45.78,0,0,1-20.88-4.56,32.72,32.72,0,0,1-14-13.1,39.51,39.51,0,0,1-4.9-20h0a37.22,37.22,0,0,1,5.24-19.86,35.27,35.27,0,0,1,14-13.1,39.55,39.55,0,0,1,18.68-4.57h0q16.9,0,27.9,9.13h0l-9.47,12.34a31.09,31.09,0,0,0-7.53-4.31,24,24,0,0,0-9.21-1.78h0a19.39,19.39,0,0,0-14.62,6.34,22.12,22.12,0,0,0-6,15.81h0a21.45,21.45,0,0,0,6.34,15.8q6.34,6.35,16.15,6.34h0a21.61,21.61,0,0,0,14.2-4.73h0Zm79.63-67.95q10,0,16.65,6a20.39,20.39,0,0,1,6.85,15.47h0v53.07h-18.94v-46.31a13.74,13.74,0,0,0-3.29-8.79q-3-3.21-8.88-3.38h0q-8.79,0-14.46,7.6t-5.66,19.1h0v31.78H2720.9V3367.73h18.59v72.51a30.34,30.34,0,0,1,11.25-11.07,33.08,33.08,0,0,1,16.82-4.14Zm97.55,60.17q7.93,0,16.06-5.57h0l8.62,14a56.21,56.21,0,0,1-12.34,5.66,41.46,41.46,0,0,1-12.68,2.11h0q-12.34,0-21.39-4.9a34.13,34.13,0,0,1-13.86-13.52,39.88,39.88,0,0,1-4.82-19.78h0a36,36,0,0,1,5.41-19.27,39.38,39.38,0,0,1,14.71-13.95,41.22,41.22,0,0,1,20.29-5.15h0q14.54,0,24.17,8.54t12.85,24.08h0l-55.11,18.6a19.16,19.16,0,0,0,7.6,6.76,23.23,23.23,0,0,0,10.49,2.36Zm-1.53-45.47A18.83,18.83,0,0,0,2849,3446q-5.65,6.26-5.66,16.23h0a17.76,17.76,0,0,0,.17,2.87h0l37.53-13.35a21.51,21.51,0,0,0-6.43-8.63q-4.21-3.37-11-3.38Zm89.1,4.91a33.38,33.38,0,0,1,8.12-10.31,43,43,0,0,1,10.73-7,23.73,23.73,0,0,1,9.22-2.45h0l-.85,18.93a23.28,23.28,0,0,0-13.86,2.79,24.62,24.62,0,0,0-9.47,9.47,25.62,25.62,0,0,0-3.38,12.76h0v30.76h-18.94v-71.5h17.08Zm132.55-68.12H3105v104.12h60.69v18.93h-80.47Zm150.63,108.68q7.95,0,16.06-5.57h0l8.62,14a56,56,0,0,1-12.34,5.66,41.41,41.41,0,0,1-12.68,2.11h0q-12.34,0-21.38-4.9a34.16,34.16,0,0,1-13.87-13.52,39.88,39.88,0,0,1-4.82-19.78h0a36.11,36.11,0,0,1,5.41-19.27,39.38,39.38,0,0,1,14.71-13.95,41.22,41.22,0,0,1,20.29-5.15h0q14.54,0,24.18,8.54t12.84,24.08h0l-55.11,18.6a19.19,19.19,0,0,0,7.61,6.76,23.19,23.19,0,0,0,10.48,2.36Zm-1.52-45.47a18.85,18.85,0,0,0-14.63,6.26q-5.65,6.26-5.66,16.23h0a19,19,0,0,0,.17,2.87h0l37.53-13.35a21.4,21.4,0,0,0-6.42-8.63q-4.23-3.37-11-3.38Zm128.15-11.66h17.41v71.5H3361v-10.31a39.8,39.8,0,0,1-10.49,8.37,30.27,30.27,0,0,1-15.38,3.8h0a38.71,38.71,0,0,1-18.43-4.31,31.5,31.5,0,0,1-12.85-12.76q-4.72-8.46-4.73-20.45h0a41.74,41.74,0,0,1,4.9-20.54,34.86,34.86,0,0,1,31.11-18.51h0q17.42,0,26,12.85h0Zm-22.15,57.81a20.22,20.22,0,0,0,20.63-15.21h0v-15.55a19.8,19.8,0,0,0-7.86-10.65,22.94,22.94,0,0,0-13.45-4.06h0a20.55,20.55,0,0,0-15.21,6.34q-6.25,6.33-6.26,16.14h0a23.06,23.06,0,0,0,11.16,20,21,21,0,0,0,11,3Zm97.72-41.24a33.49,33.49,0,0,1,8.11-10.31,43.18,43.18,0,0,1,10.74-7,23.69,23.69,0,0,1,9.21-2.45h0l-.84,18.93a23.26,23.26,0,0,0-13.86,2.79,24.62,24.62,0,0,0-9.47,9.47,25.52,25.52,0,0,0-3.38,12.76h0v30.76h-18.94v-71.5h17.08ZM3545.75,3425q10,0,16.65,6a20.32,20.32,0,0,1,6.85,15.47h0v53.07h-18.93v-46.31a13.8,13.8,0,0,0-3.3-8.79q-3-3.21-8.88-3.38h0q-8.79,0-14.45,7.52t-5.66,19.18h0v31.78h-18.94v-71.5h17.08l1.35,12.68a27.81,27.81,0,0,1,11.24-11.58,34,34,0,0,1,17-4.14Zm63.06,3h18.94v71.5h-18.94Zm-.84-25.52a9.2,9.2,0,0,1,3.38-7.19,11.25,11.25,0,0,1,7.61-3h0a10.75,10.75,0,0,1,7.35,3,9.32,9.32,0,0,1,3.3,7.19h0a9.06,9.06,0,0,1-3.3,7.1,11,11,0,0,1-7.35,2.87h0a11.46,11.46,0,0,1-7.61-2.87,9,9,0,0,1-3.38-7.1ZM3714,3425q10,0,16.65,6a20.36,20.36,0,0,1,6.85,15.47h0v53.07h-18.94v-46.31a13.74,13.74,0,0,0-3.29-8.79c-2-2.14-4.93-3.27-8.88-3.38h0q-8.79,0-14.45,7.52t-5.67,19.18h0v31.78h-18.93v-71.5h17.07l1.36,12.68a27.81,27.81,0,0,1,11.24-11.58,34,34,0,0,1,17-4.14Zm123.08,3h17.41v71.84a31.84,31.84,0,0,1-5.33,18,36.65,36.65,0,0,1-14.87,12.68,48.64,48.64,0,0,1-21.56,4.65h0q-11.67,0-19.44-3.64a67.67,67.67,0,0,1-15.72-10.56h0l11.15-13a47,47,0,0,0,11,7.86,28,28,0,0,0,12.68,2.79h0q10.48,0,16.74-5.15t6.42-13.95h0v-12a26.76,26.76,0,0,1-11.07,10.06,36.91,36.91,0,0,1-17.16,3.8h0a34.37,34.37,0,0,1-18.09-5,36.61,36.61,0,0,1-13.19-13.69,38.81,38.81,0,0,1-4.9-19.35h0a38.44,38.44,0,0,1,5.16-19.69,37.54,37.54,0,0,1,13.69-13.86,35.41,35.41,0,0,1,18.18-5h0a41.17,41.17,0,0,1,16.31,3.13q7.35,3.12,11.07,8.19h0Zm-24.18,57.81a24.88,24.88,0,0,0,14.29-4.06,21.08,21.08,0,0,0,8.36-11h0v-15.55a21,21,0,0,0-8.45-10.82,25,25,0,0,0-14.2-4.06h0a22.2,22.2,0,0,0-16.14,6.34,21.56,21.56,0,0,0-6.51,16.14h0a22.85,22.85,0,0,0,11.24,20,22,22,0,0,0,11.41,3Z" fill="#fff"/><path id="id-D6z1nYkh22" d="M887.47,2963.62h137.24v38.73H975.19v164.91H935.07V3002.35h-47.6Zm253.73,76.92q17.16,0,28.64,10.24t11.76,26h0v90.48h-38.74v-76.09q-.83-17.7-17.71-17.71h0q-13.28,0-21.3,12.46t-8,32.09h0v49.25h-38.73V2949H1095v116.49a48,48,0,0,1,18.4-18.26q11.76-6.64,27.81-6.64Zm140.56,97.12q11.63,0,24.07-8h0l17.16,28.78a105.4,105.4,0,0,1-21,8.85,73,73,0,0,1-21,3.32h0q-21.59,0-37.21-8.16a55.25,55.25,0,0,1-23.66-23q-8-14.8-8-33.9h0a60.75,60.75,0,0,1,9.26-32.65,66.57,66.57,0,0,1,25.32-23.66,72.44,72.44,0,0,1,35.14-8.71h0q26,0,42.75,15.22t21.72,43.44h0l-88.54,28.22q8.85,10.23,24.07,10.24Zm-3-67q-13,0-20.75,8.85t-7.75,23.8h0v2.49l53.12-18q-5.8-17.14-24.62-17.15Zm253.73-107.08q37.35,0,57.82,18.4t20.48,50.22h0a83.26,83.26,0,0,1-7.06,34.17q-7.05,15.91-23,26.15t-41.09,10.23h-28.78v64.47h-40.12V2963.62Zm6.91,100.16q11.36,0,18.27-5.12a30,30,0,0,0,10-12,33,33,0,0,0,3-13.29h0a38.72,38.72,0,0,0-6.36-20.89q-6.37-10.1-24.63-10.1h-28.78v61.43Zm161.32,73.88q11.61,0,24.07-8h0l17.15,28.78a105.4,105.4,0,0,1-21,8.85,72.9,72.9,0,0,1-21,3.32h0q-21.58,0-37.22-8.16a55.3,55.3,0,0,1-23.66-23q-8-14.8-8-33.9h0a60.76,60.76,0,0,1,9.27-32.65,66.57,66.57,0,0,1,25.32-23.66,72.41,72.41,0,0,1,35.14-8.71h0q26,0,42.74,15.22t21.73,43.44h0l-88.55,28.22q8.87,10.23,24.08,10.24Zm-3-67q-13,0-20.75,8.85t-7.75,23.8h0v2.49l53.13-18q-5.82-17.14-24.63-17.15ZM1887.72,2949h38.46v218.31h-38.74v-12.72q-21,16-44.82,16h0a57.16,57.16,0,0,1-30.16-8,55.5,55.5,0,0,1-20.89-23q-7.6-14.94-7.61-35.14h0q0-19.92,8.16-34.44a54.82,54.82,0,0,1,22.55-22.14q14.4-7.6,32.93-7.61h0A66.46,66.46,0,0,1,1870,3044a46.74,46.74,0,0,1,17.71,10.93h0Zm-32.37,189q11.61,0,19.37-4.56a34.68,34.68,0,0,0,12.72-13.7h0v-29.6a27.68,27.68,0,0,0-11.89-14.12,38,38,0,0,0-20.2-5.25h0a31,31,0,0,0-22.55,9.41q-9.55,9.41-9.55,23.79h0a34.71,34.71,0,0,0,4.43,17.29,32.8,32.8,0,0,0,11.76,12.32,30.23,30.23,0,0,0,15.91,4.42Zm204.75-91.58h36v120.91h-38.74v-14.94q-17.43,18.27-40.39,18.26h0q-26.85,0-43.58-16t-16.74-47.6h0q0-19.92,8.16-35a60.53,60.53,0,0,1,21.72-23.38,54.71,54.71,0,0,1,29-8.3h0q16,0,25.46,4.84a52.1,52.1,0,0,1,16.6,13.7h0ZM2028,3139q20.2,0,29.33-18.26h0v-29.61a28.23,28.23,0,0,0-11.48-14.11,34.76,34.76,0,0,0-19.23-5.26h0a29,29,0,0,0-21.72,9.41q-9,9.4-9,23.8h0a34.73,34.73,0,0,0,4.42,17.29,32.93,32.93,0,0,0,11.76,12.31A30.18,30.18,0,0,0,2028,3139Zm207.52-92.69h35.7v120.91a52.87,52.87,0,0,1-9.83,31.13,66.08,66.08,0,0,1-26.56,21.86,84.26,84.26,0,0,1-36.38,7.89h0a85.68,85.68,0,0,1-26.15-3.6,75.15,75.15,0,0,1-18-8,187.38,187.38,0,0,1-16.18-12.17h0l22.69-26.56a81.16,81.16,0,0,0,16.46,12.17q8.16,4.43,20.61,4.43h0q14.67,0,24.63-7.33t10-20.34h0v-17.15q-5.54,9.41-17,15.21t-28.08,5.81h0a57.54,57.54,0,0,1-30.3-8.44,62,62,0,0,1-22.27-23.24,65.83,65.83,0,0,1-8.3-32.79h0a66.2,66.2,0,0,1,8.71-33.48,64.74,64.74,0,0,1,23-23.79,57.29,57.29,0,0,1,30-8.58h0a76.4,76.4,0,0,1,26.56,4.29q11.63,4.29,17.71,11.21h0ZM2199,3139q23.25,0,33.48-18.26h0v-29.61a30.15,30.15,0,0,0-12.87-14.11,40.1,40.1,0,0,0-20.61-5.26h0a32.86,32.86,0,0,0-23.8,9.41q-9.67,9.4-9.68,23.8h0a33.17,33.17,0,0,0,9.68,24.21A32.12,32.12,0,0,0,2199,3139Zm102.65-33.76a63.77,63.77,0,0,1,8.72-33.2A61.33,61.33,0,0,1,2335,3049q15.9-8.45,36.1-8.44h0q20.21,0,35.56,8.44a59.39,59.39,0,0,1,23.66,23.1q8.29,14.67,8.3,33.2h0a67.8,67.8,0,0,1-8.3,33.48,58.84,58.84,0,0,1-23.66,23.38q-15.36,8.45-36.11,8.44h0q-20.21,0-35.83-7.88a58.2,58.2,0,0,1-24.35-22.55q-8.72-14.67-8.72-34.87Zm39,.28q0,14.39,8.3,23.93a26.63,26.63,0,0,0,21,9.55h0q13.27,0,21.44-9.41t8.16-24.07h0q0-14.67-8.16-24.07t-21.44-9.41h0a26.63,26.63,0,0,0-21,9.55q-8.31,9.54-8.3,23.93Zm228-59.21h35.7v120.91a52.87,52.87,0,0,1-9.83,31.13,66.08,66.08,0,0,1-26.56,21.86,84.26,84.26,0,0,1-36.38,7.89h0a85.63,85.63,0,0,1-26.15-3.6,75.15,75.15,0,0,1-18-8,187.38,187.38,0,0,1-16.18-12.17h0l22.69-26.56a81.16,81.16,0,0,0,16.46,12.17q8.16,4.43,20.61,4.43h0q14.67,0,24.63-7.33t10-20.34h0v-17.15q-5.53,9.41-17,15.21t-28.08,5.81h0a57.52,57.52,0,0,1-30.3-8.44A61.89,61.89,0,0,1,2468,3138.9a65.83,65.83,0,0,1-8.3-32.79h0a66.2,66.2,0,0,1,8.71-33.48,64.74,64.74,0,0,1,23-23.79,57.29,57.29,0,0,1,30-8.58h0a76.4,76.4,0,0,1,26.56,4.29q11.63,4.29,17.71,11.21h0ZM2532.14,3139q23.24,0,33.48-18.26h0v-29.61a30.15,30.15,0,0,0-12.87-14.11,40.1,40.1,0,0,0-20.61-5.26h0a32.86,32.86,0,0,0-23.8,9.41q-9.68,9.4-9.68,23.8h0a33.17,33.17,0,0,0,9.68,24.21,32.12,32.12,0,0,0,23.8,9.82Zm202.26-92.69h34.87l-78,179h-37.36l29.06-64.47L2627,3046.35h43.45l31.82,71.39Zm306.58,104q-7.76,6.36-24.63,12.72a103.33,103.33,0,0,1-36.8,6.37h0q-31.82,0-55.34-13.84a93.61,93.61,0,0,1-36-37.21,107.51,107.51,0,0,1-12.45-51.33h0q0-30.7,12.45-54.78a91.94,91.94,0,0,1,34.87-37.5q22.41-13.41,51.74-13.42h0a113.44,113.44,0,0,1,34.31,5,119.58,119.58,0,0,1,27.67,12.46h0l-15.77,37.9q-21.87-16.6-44.83-16.6h0a53.36,53.36,0,0,0-29.05,8.58,62.09,62.09,0,0,0-21.58,23.38,67.69,67.69,0,0,0-8,32.79h0q0,19.64,7.47,34.45a55.53,55.53,0,0,0,21.31,23.1q13.83,8.29,32.37,8.3h0a70.62,70.62,0,0,0,26.84-4.84q11.89-4.84,18.82-11.48h0Zm24.35-45.11q0-18.53,8.71-33.2a61.33,61.33,0,0,1,24.63-23.1q15.91-8.45,36.11-8.44h0q20.19,0,35.55,8.44a59.33,59.33,0,0,1,23.66,23.1q8.3,14.67,8.3,33.2h0a67.8,67.8,0,0,1-8.3,33.48,58.78,58.78,0,0,1-23.66,23.38q-15.36,8.45-36.11,8.44h0q-20.19,0-35.83-7.88a58.2,58.2,0,0,1-24.35-22.55q-8.72-14.67-8.71-34.87Zm39,.28q0,14.39,8.3,23.93a26.66,26.66,0,0,0,21,9.55h0q13.27,0,21.44-9.41t8.17-24.07h0q0-14.67-8.17-24.07t-21.44-9.41h0a26.66,26.66,0,0,0-21,9.55q-8.29,9.54-8.3,23.93Zm287.76-65.3q17.71,0,28.36,10t11.21,26.29h0v90.75h-38.46v-74.7q-.55-9.14-3-13.7c-1.67-3-4.89-4.75-9.69-5.12h0q-13.56,0-21.17,13.14t-7.61,30.86h0v49.52H3313v-74.7q-.55-9.14-3.32-13.7t-10.24-5.12h0q-13,0-20.48,13.14t-7.47,30.3h0v50.08h-38.73V3046.35h35.14l2.76,19.09q14.67-25.18,43.72-25.18h0q14.67,0,24.21,5.95a30.44,30.44,0,0,1,13.14,17.57h0a61.34,61.34,0,0,1,18.4-17.15,42.32,42.32,0,0,1,22-6.37Zm238.79,0q17.7,0,28.36,10t11.21,26.29h0v90.75H3632v-74.7q-.55-9.14-3.05-13.7t-9.68-5.12h0q-13.56,0-21.17,13.14t-7.61,30.86h0v49.52h-38.74v-74.7q-.55-9.14-3.32-13.7t-10.23-5.12h0q-13,0-20.48,13.14t-7.47,30.3h0v50.08h-38.74V3046.35h35.14l2.77,19.09q14.67-25.18,43.72-25.18h0q14.66,0,24.21,5.95a30.53,30.53,0,0,1,13.14,17.57h0a61.34,61.34,0,0,1,18.4-17.15,42.3,42.3,0,0,1,22-6.37Zm162.42,6.09H3832v120.91H3796.9l-2.76-19.37a47.55,47.55,0,0,1-17.85,18.41q-11.48,6.76-27,6.77h0q-16.59,0-27.67-10.23t-11.34-26h0v-90.48H3749v76.09q.83,17.7,16.32,17.71h0q12.73,0,20.34-12.45t7.61-32.1h0Zm162.69-5.81q17.16,0,28.64,10.24a34.12,34.12,0,0,1,11.76,26h0v90.48h-38.74v-76.09q-.82-17.7-17.71-17.71h0q-13.27,0-21.3,12.46t-8,32.09h0v49.25h-38.74V3046.35H3907l2.77,19.37a47.4,47.4,0,0,1,18.4-18.54q11.75-6.64,27.8-6.64Zm80.24,5.81H4075v120.91h-38.74Zm-.83-42.89a17.82,17.82,0,0,1,6.51-14,21.89,21.89,0,0,1,14.8-5.67h0a21.07,21.07,0,0,1,14.39,5.67,18,18,0,0,1,6.36,14h0a17.59,17.59,0,0,1-6.36,13.84,21.35,21.35,0,0,1-14.39,5.53h0a22.19,22.19,0,0,1-14.8-5.53,17.42,17.42,0,0,1-6.51-13.84Zm90.76-10.24h38.74v52.58h29.33V3076h-29.33v91.31h-38.74V3076h-18.82V3045.8h18.82ZM4314,3046.35h34.87l-78,179h-37.35l29.05-64.47-55.89-114.55h43.44l31.82,71.39Z" fill="#fff"/><path d="M4425.63,2935.43a48.39,48.39,0,1,1-48.38,48.39,48.45,48.45,0,0,1,48.38-48.39m0-9.16a57.55,57.55,0,1,0,57.54,57.55,57.55,57.55,0,0,0-57.54-57.55Z" fill="#fff"/><path d="M4436.51,3014.09l-14-24.67h-6v24.67h-12.7V2950.8h23.76a27.74,27.74,0,0,1,12.51,2.58,18,18,0,0,1,7.75,7,19.65,19.65,0,0,1-1,21.13,18.65,18.65,0,0,1-10.79,6.94l15.14,25.66Zm-19.95-34.19h10.61q5.16,0,7.7-2.49a9.28,9.28,0,0,0,2.54-6.94,8.85,8.85,0,0,0-2.54-6.75c-1.69-1.6-4.26-2.41-7.7-2.41h-10.61Z" fill="#fff"/></g></svg>