<svg id="Layer_1" data-name="Layer 1" xmlns="http://www.w3.org/2000/svg" viewBox="0 0 5000 2674.5"><g id="Layer_1-2" data-name="Layer 1"><path d="M1914.05,1500a23.43,23.43,0,0,1-23.43-23.43h0V609.38H1773.43a23.44,23.44,0,0,1-14.35-42L2485.64,4.91a23.42,23.42,0,0,1,28.7,0l726.56,562.5a23.44,23.44,0,0,1-14.34,42H3109.37V961a23.44,23.44,0,0,1-46.87,0V586a23.43,23.43,0,0,1,23.42-23.44H3158L2500,53.09,1842,562.51h72.06a23.43,23.43,0,0,1,23.43,23.43v890.68A23.43,23.43,0,0,1,1914.05,1500Z" transform="translate(0 0)" fill="#fff"/><path d="M3085.92,609.38a23.28,23.28,0,0,1-14.24-4.83L2500,166.36,1928.31,604.55a23.44,23.44,0,0,1-28.52-37.21h0l585.94-449.11a23.44,23.44,0,0,1,28.52,0l585.94,449.11a23.44,23.44,0,0,1-14.27,42Z" transform="translate(0 0)" fill="#fff"/><path d="M3179.68,1500H1820.3a23.44,23.44,0,0,1,0-46.87H3179.68a23.44,23.44,0,1,1,1,46.87Z" transform="translate(0 0)" fill="#fff"/><path d="M2218.74,1406.26H2101.56a117.32,117.32,0,0,1-117.19-117.19V1125c0-89.2,47.87-154,124.93-169l.67-.12L2188.44,943a11.93,11.93,0,0,0,6.87-3.17V888.6a23.44,23.44,0,1,1,46.87-1q0,.48,0,1v51.67c0,27.76-23.43,45.68-46.57,49l-77.67,12.78c-54.29,10.76-86.7,56.68-86.7,122.92V1289a70.41,70.41,0,0,0,70.32,70.32h117.18a23.44,23.44,0,0,1,1,46.87h-1Z" transform="translate(0 0)" fill="#fff"/><path d="M2617.18,1171.89a23.46,23.46,0,0,1-23.44-23.44V1125c0-66.24-32.4-112.16-86.7-122.92l-78.11-12.86c-22.7-3.29-46.12-21.2-46.12-49V888.59a23.44,23.44,0,1,1,46.87-1q0,.48,0,1V939.8a11.33,11.33,0,0,0,6.42,3.1l78.91,13,.68.13c77.06,15,124.93,79.8,124.93,169v23.44A23.44,23.44,0,0,1,2617.18,1171.89Z" transform="translate(0 0)" fill="#fff"/><path d="M2382.81,679.7a23.34,23.34,0,0,1-16.58-6.87l-9.87-9.87c-23.73,11.61-59.81,16.74-114.18,16.74h-93.75a23.44,23.44,0,0,1,0-46.88h93.75c69.11,0,93-9.12,100.82-16.78a23.42,23.42,0,0,1,32.93.21l23.44,23.43a23.46,23.46,0,0,1-16.56,40Z" transform="translate(0 0)" fill="#fff"/><path d="M2312.49,937.51c-103.38,0-187.5-84.11-187.5-187.5V656.26c0-103.39,84.12-187.5,187.5-187.5S2500,552.87,2500,656.26V750C2500,853.4,2415.88,937.51,2312.49,937.51Zm0-421.88c-77.54,0-140.62,63.09-140.62,140.63V750c0,77.54,63.08,140.62,140.62,140.62S2453.12,827.55,2453.12,750V656.26C2453.12,578.72,2390,515.63,2312.49,515.63Z" transform="translate(0 0)" fill="#fff"/><path d="M2312.49,1054.7c-56.36,0-117.18-44.81-117.18-117.19a23.44,23.44,0,1,1,46.87-1q0,.48,0,1c0,43.43,36.5,70.31,70.31,70.31s70.32-26.88,70.32-70.31a23.44,23.44,0,1,1,46.87-1q0,.48,0,1C2429.68,1009.89,2368.86,1054.7,2312.49,1054.7Z" transform="translate(0 0)" fill="#fff"/><path d="M3085.93,1406.26H2359.37a70.39,70.39,0,0,1-70.31-70.31v-46.88a23.43,23.43,0,0,1,23.43-23.43h257.82a23.44,23.44,0,0,1,0,46.87H2335.93V1336a23.47,23.47,0,0,0,23.44,23.44h242.35l134.54-313.93a23.46,23.46,0,0,1,21.55-14.2h468.75A23.43,23.43,0,0,1,3248.1,1064l-140.62,328.13A23.44,23.44,0,0,1,3085.93,1406.26Zm-433.21-46.87h417.75L3191,1078.13H2773.26Z" transform="translate(0 0)" fill="#fff"/><path d="M2218.74,1265.64h-70.31A23.45,23.45,0,0,1,2125,1242.2v-93.75a23.44,23.44,0,0,1,46.88-.11v70.42h46.87a23.44,23.44,0,0,1,0,46.88Z" transform="translate(0 0)" fill="#fff"/><path id="id-6izo4zJp26" d="M714.22,2445.28H742.8V2623H714.22Zm225.41,69.84q15.14,0,24,8.54t9.41,22.46h0V2623H946v-66.42q-.5-8.29-3.67-12.82t-10.5-5h0q-12.69,0-20.51,11.35t-8.06,26.49h0V2623H875.65v-66.42q-.49-8.05-3.79-12.69T861,2538.8h0a22,22,0,0,0-14.65,5.37,35.5,35.5,0,0,0-9.89,14.16,48.7,48.7,0,0,0-3.54,18.31h0V2623H805.56V2519.75h24.66l2.2,18.07A41.72,41.72,0,0,1,848.29,2521a44.55,44.55,0,0,1,23-5.86h0q12.45,0,20.88,5.49a25.91,25.91,0,0,1,11.11,15.75h0a46,46,0,0,1,16.12-15.63,40.16,40.16,0,0,1,20.27-5.61Zm158.49,0a50.86,50.86,0,0,1,26.13,6.83,47.31,47.31,0,0,1,18.32,19.53q6.59,12.7,6.59,29.55h0q0,16.6-7.2,29a48.07,48.07,0,0,1-20,19,62.47,62.47,0,0,1-28.94,6.59h0a49,49,0,0,1-19.78-4.15,42.88,42.88,0,0,1-15.63-11.23h0v62.26h-27.35V2517.8H1054l2.44,15.38A61.72,61.72,0,0,1,1075,2520a54.51,54.51,0,0,1,23.08-4.88Zm-10.5,88.87a34.21,34.21,0,0,0,29.06-15.87,30.33,30.33,0,0,0,4.64-16.6h0q0-14.42-9.16-23.81a30.26,30.26,0,0,0-22.59-9.4h0q-12,0-20.14,5.86a32.73,32.73,0,0,0-11.85,16.36h0v20.75a28.78,28.78,0,0,0,10.62,16.36,30.73,30.73,0,0,0,19.42,6.35Zm192.92-84.24h25.16V2623h-27.35v-14.9a57.16,57.16,0,0,1-15.14,12.09q-9.53,5.49-22.23,5.49h0a55.85,55.85,0,0,1-26.62-6.22A45.53,45.53,0,0,1,1195.8,2601q-6.84-12.21-6.83-29.54h0q0-16.84,7.08-29.67A51.09,51.09,0,0,1,1215,2522a50.36,50.36,0,0,1,26-7h0q25.15,0,37.61,18.55h0Zm-32,83.51q11.24,0,18.93-5.74t10.87-16.24h0v-22.46a28.53,28.53,0,0,0-11.36-15.38,33.19,33.19,0,0,0-19.41-5.86h0a29.75,29.75,0,0,0-22,9.15q-9,9.17-9,23.32h0a33.25,33.25,0,0,0,16.12,28.81,30.31,30.31,0,0,0,15.87,4.4Zm200,10.25a51.75,51.75,0,0,1-16.73,8.92,62.9,62.9,0,0,1-19.9,3.29h0q-17.1,0-30.16-6.59a47.18,47.18,0,0,1-20.15-18.92q-7.08-12.33-7.08-28.94h0q0-16.35,7.57-28.69a51.09,51.09,0,0,1,20.15-18.92,57.32,57.32,0,0,1,27-6.59h0q24.42,0,40.3,13.18h0l-13.68,17.83a45.33,45.33,0,0,0-10.87-6.23,34.68,34.68,0,0,0-13.31-2.56h0a28,28,0,0,0-21.12,9.15q-8.67,9.17-8.67,22.83h0q0,13.68,9.16,22.83t23.32,9.16h0q12.21,0,20.51-6.84h0Zm57.63-139.17h27.35v45.41h26.87v21.49h-26.87V2623h-27.35v-81.8h-17.82v-21.49h17.82ZM1615.84,2623v-79.36h-17.58v-24.17h17.58V2479q0-21.73,11-33.94t31.5-12.21h0a52.92,52.92,0,0,1,13.19,1.83,39.75,39.75,0,0,1,12.21,5.25h0l-11.48,19.78a14.42,14.42,0,0,0-11-4.39h0q-18.08,0-18.08,24.41h0v39.8h32.24v24.17h-32.24V2623Zm180.72-103.29h27.35V2623h-24.67l-1.71-18.56a40.71,40.71,0,0,1-15.87,16.72,46,46,0,0,1-23.93,6.23h0q-14.18,0-23.57-8.67t-9.64-22.34h0v-76.67h27.35v66.91q.74,17.09,16.85,17.33h0q12,0,19.9-11t7.94-27.59h0Zm84.74-87.16h27.35V2623H1881.3Zm175.09,12.69h118.93v27.35h-45.91V2623h-28.32V2472.63h-44.7Zm193.42,157q11.47,0,23.2-8.06h0l12.45,20.27a80.74,80.74,0,0,1-17.82,8.18,60.34,60.34,0,0,1-18.32,3h0q-17.82,0-30.89-7.08a49.29,49.29,0,0,1-20-19.53q-7-12.45-7-28.57h0a52.09,52.09,0,0,1,7.82-27.83,56.83,56.83,0,0,1,21.24-20.15,59.59,59.59,0,0,1,29.31-7.44h0q21,0,34.92,12.33t18.56,34.79h0L2223.67,2589a27.71,27.71,0,0,0,11,9.76,33.36,33.36,0,0,0,15.14,3.42Zm-2.2-65.68q-12.95,0-21.12,9t-8.18,23.44h0a26.2,26.2,0,0,0,.24,4.15h0l54.21-19.29a31.08,31.08,0,0,0-9.28-12.46q-6.11-4.87-15.87-4.88Zm185.11-16.85h25.15V2623h-27.35v-14.9a56.76,56.76,0,0,1-15.14,12.09q-9.52,5.49-22.22,5.49h0a55.85,55.85,0,0,1-26.62-6.22A45.53,45.53,0,0,1,2348,2601q-6.84-12.21-6.84-29.54h0q0-16.84,7.08-29.67a50.91,50.91,0,0,1,18.93-19.78,50.36,50.36,0,0,1,26-7h0q25.16,0,37.61,18.55h0Zm-32,83.51q11.24,0,18.93-5.74t10.86-16.24h0v-22.46a28.52,28.52,0,0,0-11.35-15.38,33.2,33.2,0,0,0-19.42-5.86h0a29.75,29.75,0,0,0-22,9.15q-9,9.17-9,23.32h0a33.16,33.16,0,0,0,16.12,28.81,30.31,30.31,0,0,0,15.87,4.4Zm200,10.25a51.94,51.94,0,0,1-16.73,8.92,63,63,0,0,1-19.91,3.29h0q-17.09,0-30.15-6.59a47.18,47.18,0,0,1-20.15-18.92q-7.08-12.33-7.08-28.94h0q0-16.35,7.57-28.69a51.13,51.13,0,0,1,20.14-18.92,57.32,57.32,0,0,1,27-6.59h0q24.42,0,40.29,13.18h0l-13.7,17.87a45.67,45.67,0,0,0-10.87-6.23,34.68,34.68,0,0,0-13.31-2.56h0a28,28,0,0,0-21.12,9.15q-8.67,9.17-8.67,22.83h0q0,13.68,9.15,22.83t23.33,9.16h0q12.21,0,20.51-6.84h0Zm115-98.15q14.4,0,24,8.67t9.89,22.34h0V2623h-27.35v-66.91q-.48-8.06-4.76-12.69t-12.82-4.88h0q-12.7,0-20.88,11t-8.18,27.59h0V2623h-27.35V2432.59h26.86v104.74a43.89,43.89,0,0,1,16.24-16q10.38-6,24.3-6Zm140.91,86.92q11.48,0,23.2-8.06h0l12.45,20.27a80.82,80.82,0,0,1-17.83,8.18,60.27,60.27,0,0,1-18.31,3h0q-17.83,0-30.89-7.08a49.29,49.29,0,0,1-20-19.53q-7-12.45-7-28.57h0a52.09,52.09,0,0,1,7.82-27.83,56.83,56.83,0,0,1,21.24-20.15,59.49,59.49,0,0,1,29.31-7.44h0q21,0,34.92,12.33t18.56,34.79h0L2830.49,2589a27.63,27.63,0,0,0,11,9.76,33.23,33.23,0,0,0,15.14,3.42Zm-2.2-65.68q-12.94,0-21.12,9t-8.19,23.44h0a27.37,27.37,0,0,0,.25,4.15h0l54.21-19.29a31.08,31.08,0,0,0-9.28-12.46q-6.11-4.87-15.87-4.88Zm128.7,7.08a48.22,48.22,0,0,1,11.72-14.89,62.64,62.64,0,0,1,15.51-10.13q7.93-3.54,13.31-3.54h0l-1.23,27.34a33.63,33.63,0,0,0-20,4,35.65,35.65,0,0,0-13.68,13.67,37,37,0,0,0-4.88,18.44h0V2623h-27.35V2519.75h24.66Zm191.46-98.4h28.57v150.41h87.67V2623h-116.2Zm217.59,157q11.47,0,23.2-8.06h0l12.45,20.27a80.82,80.82,0,0,1-17.83,8.18,60.27,60.27,0,0,1-18.31,3h0q-17.83,0-30.89-7.08a49.29,49.29,0,0,1-20-19.53q-7-12.45-7-28.57h0a52.09,52.09,0,0,1,7.82-27.83,56.83,56.83,0,0,1,21.24-20.15,59.49,59.49,0,0,1,29.31-7.44h0q21,0,34.92,12.33t18.56,34.79h0L3366,2589a27.63,27.63,0,0,0,11,9.76,33.23,33.23,0,0,0,15.14,3.42Zm-2.2-65.68q-12.95,0-21.13,9t-8.18,23.44h0a27.37,27.37,0,0,0,.25,4.15h0l54.21-19.29a31.08,31.08,0,0,0-9.28-12.46q-6.1-4.87-15.87-4.88Zm185.11-16.85h25.15V2623h-27.35v-14.9a56.76,56.76,0,0,1-15.14,12.09q-9.52,5.49-22.22,5.49h0a55.85,55.85,0,0,1-26.62-6.22,45.53,45.53,0,0,1-18.56-18.44q-6.84-12.21-6.84-29.54h0q0-16.84,7.08-29.67a50.91,50.91,0,0,1,18.93-19.78,50.36,50.36,0,0,1,26-7h0q25.16,0,37.61,18.55h0Zm-32,83.51q11.23,0,18.92-5.74t10.87-16.24h0v-22.46a28.52,28.52,0,0,0-11.35-15.38,33.2,33.2,0,0,0-19.42-5.86h0a29.75,29.75,0,0,0-22,9.15q-9,9.17-9,23.32h0a33.21,33.21,0,0,0,16.11,28.81,30.34,30.34,0,0,0,15.88,4.4Zm141.15-59.58a48.6,48.6,0,0,1,11.72-14.89,62.64,62.64,0,0,1,15.51-10.13q7.94-3.54,13.31-3.54h0l-1.22,27.34a33.63,33.63,0,0,0-20,4,35.62,35.62,0,0,0-13.67,13.67,37,37,0,0,0-4.89,18.44h0V2623h-27.35V2519.75h24.67Zm155.56-28.32q14.41,0,24.06,8.67t9.89,22.34h0V2623h-27.36v-66.91q-.48-8.06-4.76-12.69t-12.82-4.88h0q-12.69,0-20.88,10.86t-8.18,27.71h0V2623H3772.4V2519.75h24.66l2,18.32a40.17,40.17,0,0,1,16.24-16.73q10.62-6,24.54-6Zm91.09,4.39h27.35V2623h-27.35Zm-1.22-36.86a13.33,13.33,0,0,1,4.88-10.38,16.28,16.28,0,0,1,11-4.27h0a15.52,15.52,0,0,1,10.63,4.27,13.45,13.45,0,0,1,4.76,10.38h0a13.06,13.06,0,0,1-4.76,10.25,15.78,15.78,0,0,1-10.63,4.15h0a16.5,16.5,0,0,1-11-4.15A13,13,0,0,1,3929.67,2482.85Zm153.12,32.47q14.4,0,24.05,8.67t9.89,22.34h0V2623h-27.35v-66.91q-.48-8.06-4.76-12.69t-12.82-4.88h0q-12.71,0-20.88,10.86t-8.18,27.71h0V2623h-27.35V2519.75h24.66l2,18.32a40.17,40.17,0,0,1,16.24-16.73q10.62-6,24.54-6Zm177.78,4.39h25.16v103.77a46.05,46.05,0,0,1-7.7,26,52.84,52.84,0,0,1-21.49,18.31,70.05,70.05,0,0,1-31.13,6.71h0q-16.86,0-28.09-5.25a98.06,98.06,0,0,1-22.71-15.26h0l16.12-18.8a67.73,67.73,0,0,0,15.87,11.36,40.44,40.44,0,0,0,18.32,4h0q15.14,0,24.18-7.45t9.28-20.14h0V2605.7a38.82,38.82,0,0,1-16,14.53q-10.62,5.49-24.79,5.49h0a49.82,49.82,0,0,1-26.13-7.2,53,53,0,0,1-19.05-19.78,56,56,0,0,1-7.08-28h0a55.53,55.53,0,0,1,7.45-28.44,54.21,54.21,0,0,1,19.78-20,51.27,51.27,0,0,1,26.25-7.2h0a59.71,59.71,0,0,1,23.57,4.51q10.62,4.51,16,11.84h0Zm-34.92,83.51q12,0,20.64-5.86a30.58,30.58,0,0,0,12.09-15.87h0V2559a30.33,30.33,0,0,0-12.22-15.62,36,36,0,0,0-20.51-5.86h0q-13.92,0-23.32,9.15t-9.4,23.32h0a32.94,32.94,0,0,0,16.24,28.81,31.82,31.82,0,0,0,16.48,4.4Z" transform="translate(0 0)" fill="#fff"/><path id="id-D6z1nYkh22" d="M0,1848.86H198.24v56H126.7V2143H68.75V1904.81H0ZM366.51,1960q24.78,0,41.36,14.79t17,37.57h0V2143h-56V2033.11q-1.19-25.58-25.57-25.58h0q-19.19,0-30.78,18T301,2071.88h0V2143H245V1827.67h54.76v168.27a69.23,69.23,0,0,1,26.58-26.38q17-9.58,40.17-9.59Zm203,140.29q16.8,0,34.78-11.6h0l24.78,41.57A152.48,152.48,0,0,1,598.72,2143a105.76,105.76,0,0,1-30.37,4.8h0q-31.19,0-53.76-11.79t-34.17-33.18q-11.6-21.37-11.6-49h0a87.85,87.85,0,0,1,13.39-47.16,96.1,96.1,0,0,1,36.58-34.17,104.49,104.49,0,0,1,50.75-12.5h0q37.58,0,61.76,22t31.37,62.75h0l-127.9,40.77q12.79,14.79,34.77,14.79Zm-4.39-96.73q-18.79,0-30,12.79T524,2050.69h0v3.6l76.74-26q-8.4-24.78-35.57-24.78Zm366.5-154.67q54,0,83.54,26.58t29.57,72.54h0a120.31,120.31,0,0,1-10.19,49.36q-10.18,23-33.17,37.77T942,2049.93H900.48V2143h-58V1848.86Zm10,144.68q16.38,0,26.38-7.39a43.41,43.41,0,0,0,14.38-17.39,47.48,47.48,0,0,0,4.4-19.18h0q0-15.6-9.19-30.18T942,1904.84H900.48v88.73Zm233,106.72q16.79,0,34.77-11.6h0l24.78,41.57a152,152,0,0,1-30.37,12.79,105.77,105.77,0,0,1-30.38,4.8h0q-31.17,0-53.76-11.79t-34.17-33.18q-11.6-21.37-11.59-49h0a87.77,87.77,0,0,1,13.39-47.16,96.14,96.14,0,0,1,36.57-34.17,104.56,104.56,0,0,1,50.76-12.59h0q37.58,0,61.75,22t31.38,62.75h0l-127.9,40.77q12.78,14.79,34.77,14.79Zm-4.4-96.73q-18.78,0-30,12.79T1129,2050.72h0v3.6l76.74-26q-8.4-24.78-35.58-24.78ZM1444.8,1827.7h55.56V2143h-56v-18.38q-30.37,23.18-64.74,23.18h0q-24.39,0-43.57-11.59t-30-33.16q-11-21.59-11-50.76h0q0-28.77,11.79-49.76a79.21,79.21,0,0,1,32.58-32q20.78-11,47.56-11h0a96.14,96.14,0,0,1,32.37,5.39,67.4,67.4,0,0,1,25.58,15.79h0Zm-46.76,273q16.79,0,28-6.59t18.38-19.78h0v-42.77a39.91,39.91,0,0,0-17.18-20.38q-12.39-7.61-29.18-7.6h0q-18.78,0-32.57,13.59t-13.79,34.37h0a50.15,50.15,0,0,0,6.39,25,47.44,47.44,0,0,0,17,17.79,43.68,43.68,0,0,0,23,6.39Zm295.77-132.29h52V2143h-56v-21.58q-25.18,26.37-58.36,26.38h0q-38.76,0-62.94-23.18t-24.19-68.75h0q0-28.77,11.8-50.56t31.37-33.77a78.94,78.94,0,0,1,42-12h0q23.17,0,36.77,7a75.12,75.12,0,0,1,24,19.79h0Zm-46.37,133.89q29.18,0,42.37-26.38h0v-42.76a40.73,40.73,0,0,0-16.59-20.38q-11.79-7.6-27.78-7.6h0q-18.37,0-31.37,13.59t-13,34.37h0a50.15,50.15,0,0,0,6.39,25,47.44,47.44,0,0,0,17,17.79,43.68,43.68,0,0,0,23,6.39Zm299.76-133.89h51.56V2143a76.38,76.38,0,0,1-14.19,45q-14.19,20.19-38.37,31.58a121.78,121.78,0,0,1-52.55,11.39h0q-21.59,0-37.77-5.2t-26-11.59a274.07,274.07,0,0,1-23.39-17.58h0l32.78-38.37a117,117,0,0,0,23.78,17.58q11.79,6.41,29.78,6.4h0q21.18,0,35.57-10.59t14.39-29.38h0v-24.78q-8,13.59-24.58,22t-40.57,8.4h0a83.31,83.31,0,0,1-43.77-12.19,89.62,89.62,0,0,1-32.17-33.58q-12-21.37-12-47.36h0a95.66,95.66,0,0,1,12.59-48.36,93.39,93.39,0,0,1,33.17-34.37,82.87,82.87,0,0,1,43.37-12.39h0q21.59,0,38.37,6.19t25.58,16.19h0Zm-52.76,133.89q33.58,0,48.37-26.38h0v-42.76a43.53,43.53,0,0,0-18.59-20.38q-13-7.6-29.78-7.6h0q-20.37,0-34.37,13.59t-14,34.37h0q0,20.79,14,35t34.37,14.19Zm148.29-48.76q0-26.77,12.59-48t35.57-33.37q23-12.2,52.16-12.19h0q29.17,0,51.35,12.19a85.92,85.92,0,0,1,34.18,33.37q12,21.18,12,48h0q0,26.79-12,48.36a85.15,85.15,0,0,1-34.18,33.78q-22.17,12.18-52.15,12.19h0q-29.17,0-51.76-11.39a84,84,0,0,1-35.17-32.58q-12.6-21.18-12.59-50.36Zm56.35.4q0,20.79,12,34.57a38.46,38.46,0,0,0,30.38,13.79h0q19.18,0,31-13.59t11.79-34.77h0q0-21.18-11.79-34.77t-31-13.59h0a38.54,38.54,0,0,0-30.38,13.79Q2099.08,2033.16,2099.08,2053.94Zm329.34-85.53H2480V2143a76.38,76.38,0,0,1-14.19,45q-14.19,20.19-38.37,31.58A121.88,121.88,0,0,1,2374.9,2231h0q-21.58,0-37.77-5.2t-26-11.59a273.92,273.92,0,0,1-23.38-17.58h0l32.77-38.37a117,117,0,0,0,23.78,17.58q11.8,6.4,29.78,6.4h0q21.18,0,35.57-10.59t14.39-29.38h0v-24.78q-8,13.59-24.58,22t-40.57,8.4h0a83.07,83.07,0,0,1-43.76-12.19,89.73,89.73,0,0,1-32.18-33.58,95.19,95.19,0,0,1-12-47.36h0a95.66,95.66,0,0,1,12.59-48.36,93.49,93.49,0,0,1,33.18-34.37,82.84,82.84,0,0,1,43.36-12.39h0q21.59,0,38.37,6.19T2424,1982h0Zm-52.76,133.89q33.57,0,48.36-26.38h0v-42.76a43.51,43.51,0,0,0-18.58-20.38q-13-7.6-29.78-7.6h0q-20.38,0-34.37,13.59t-14,34.37h0q0,20.79,14,35t34.37,14.19Zm292.17-133.89h50.36L2605.52,2227h-54l42-93.12-80.74-165.47h62.75l46,103.12Zm442.84,150.28q-11.19,9.2-35.57,18.39t-53.16,9.19h0q-46,0-79.93-20t-52-53.75q-18-33.78-18-74.14h0q0-44.37,18-79.14t50.36-54.16q32.37-19.38,74.74-19.38h0a163.8,163.8,0,0,1,49.56,7.19,173.32,173.32,0,0,1,40,18h0l-22.79,54.76q-31.58-24-64.74-24h0a77.1,77.1,0,0,0-42,12.39,89.67,89.67,0,0,0-31.18,33.78q-11.58,21.38-11.59,47.36h0q0,28.38,10.8,49.76a80.1,80.1,0,0,0,30.77,33.37q20,12,46.76,12h0q21.59,0,38.77-7t27.18-16.59h0Zm35.17-65.15q0-26.77,12.59-48t35.57-33.37q23-12.2,52.16-12.19h0q29.18,0,51.36,12.19a85.77,85.77,0,0,1,34.17,33.37q12,21.18,12,48h0q0,26.79-12,48.36a85.06,85.06,0,0,1-34.17,33.78q-22.18,12.18-52.16,12.19h0q-29.18,0-51.75-11.39a84.1,84.1,0,0,1-35.18-32.58q-12.58-21.18-12.59-50.36Zm56.36.4q0,20.79,12,34.57a38.48,38.48,0,0,0,30.37,13.79h0q19.18,0,31-13.59t11.79-34.77h0q0-21.18-11.79-34.77t-31-13.59h0a38.52,38.52,0,0,0-30.37,13.79Q3202.2,2033.16,3202.2,2053.94Zm415.67-94.32q25.58,0,41,14.39t16.19,38h0v131H3619.5V2035.11q-.8-13.2-4.39-19.79t-14-7.39h0q-19.59,0-30.58,19t-11,44.57h0V2143h-56V2035.11q-.81-13.2-4.8-19.79t-14.79-7.39h0q-18.78,0-29.57,19t-10.79,43.77h0V2143h-56V1968.36h50.76l4,27.58q21.18-36.37,63.15-36.37h0q21.18,0,35,8.59t19,25.38h0a88.44,88.44,0,0,1,26.58-24.78q15.39-9.19,31.78-9.19Zm344.92,0q25.58,0,41,14.39t16.18,38h0v131h-55.55V2035.11q-.8-13.2-4.4-19.79t-14-7.39h0q-19.58,0-30.57,19t-11,44.57h0V2143h-56V2035.11q-.79-13.2-4.79-19.79t-14.79-7.39h0q-18.79,0-29.58,19t-10.79,43.77h0V2143h-56V1968.36h50.76l4,27.58q21.18-36.37,63.15-36.37h0q21.18,0,35,8.59t19,25.38h0a88.44,88.44,0,0,1,26.58-24.78q15.38-9.19,31.77-9.19Zm234.61,8.79h56V2143h-50.76l-4-28a68.66,68.66,0,0,1-25.78,26.58q-16.59,9.8-39,9.79h0q-24,0-40-14.78T4077.48,2099h0v-130.7h56v109.91q1.2,25.59,23.58,25.58h0q18.39,0,29.38-18t11-46.37h0Zm235-8.39q24.78,0,41.37,14.79t17,37.57h0V2143h-56V2033.11q-1.2-25.58-25.58-25.58h0q-19.19,0-30.77,18t-11.59,46.36h0V2143h-56V1968.36h50.76l4,28a68.37,68.37,0,0,1,26.58-26.78q17-9.58,40.16-9.59Zm115.91,8.39h56V2143h-56Zm-1.2-62a25.7,25.7,0,0,1,9.4-20.18,31.58,31.58,0,0,1,21.38-8.2h0a30.36,30.36,0,0,1,20.78,8.2,26,26,0,0,1,9.19,20.18h0a25.35,25.35,0,0,1-9.19,20,30.87,30.87,0,0,1-20.78,8h0a32,32,0,0,1-21.38-8A25.16,25.16,0,0,1,4547.11,1906.46Zm131.1-14.79h55.95v75.94h42.37v43.57h-42.37V2143h-55.95V2011.13H4651v-43.57h27.18Zm271.38,76.74H5000L4887.29,2227h-54l42-93.12-80.74-165.47h62.75l46,103.12Z" transform="translate(0 0)" fill="#fff"/></g><path d="M3319.58,371.4c-77.15,0-139.93-62.78-139.93-139.94s62.78-139.93,139.93-139.93,139.93,62.77,139.93,139.93S3396.74,371.4,3319.58,371.4Zm0-259.87a119.94,119.94,0,1,0,119.93,120v0a120.07,120.07,0,0,0-119.93-119.94Z" transform="translate(0 0)" fill="#fff"/><path d="M3349.74,304.53l-35.45-62.62h-15.2v62.62h-32.23V143.83h60.32q18.65,0,31.77,6.57t19.69,17.72a48.44,48.44,0,0,1,6.56,25,47.88,47.88,0,0,1-9.21,28.66q-9.21,12.78-27.4,17.61L3387,304.53Zm-50.65-86.8H3326q13.13,0,19.57-6.33t6.44-17.61q0-11.06-6.44-17.15t-19.57-6.1h-26.94Z" transform="translate(0 0)" fill="#fff"/></svg>