<svg xmlns="http://www.w3.org/2000/svg" viewBox="0 0 1704.89 1500.01"><g id="Layer_1" data-name="Layer 1"><path d="M164.05,1500a23.43,23.43,0,0,1-23.43-23.44V609.38H23.43a23.45,23.45,0,0,1-14.36-42L735.64,4.91a23.42,23.42,0,0,1,28.7,0l726.56,562.5a23.44,23.44,0,0,1-14.34,42H1359.37V961a23.44,23.44,0,0,1-46.87,0V586a23.43,23.43,0,0,1,23.43-23.44H1408L750,53.09,92,562.51h72.06A23.43,23.43,0,0,1,187.49,586v890.62A23.43,23.43,0,0,1,164.05,1500Z" fill="#fff"/><path d="M1335.91,609.38a23.3,23.3,0,0,1-14.24-4.83L750,166.36,178.31,604.55a23.44,23.44,0,0,1-28.52-37.21L735.73,118.23a23.44,23.44,0,0,1,28.52,0l585.94,449.11a23.44,23.44,0,0,1-14.28,42Z" fill="#fff"/><path d="M1429.68,1500H70.3a23.44,23.44,0,1,1,0-46.87H1429.68a23.44,23.44,0,1,1,0,46.87Z" fill="#fff"/><path d="M468.74,1406.26H351.55a117.32,117.32,0,0,1-117.18-117.19V1125c0-89.2,47.86-154,124.93-169l.67-.12L438.44,943a11.84,11.84,0,0,0,6.86-3.17V888.6a23.44,23.44,0,1,1,46.88,0v51.67c0,27.76-23.43,45.68-46.57,49l-77.67,12.78c-54.29,10.76-86.7,56.68-86.7,122.92v164.06a70.4,70.4,0,0,0,70.31,70.32H468.74a23.44,23.44,0,1,1,0,46.87Z" fill="#fff"/><path d="M867.18,1171.89a23.45,23.45,0,0,1-23.44-23.44V1125c0-66.24-32.41-112.16-86.7-122.92l-78.11-12.86c-22.7-3.29-46.13-21.2-46.13-49V888.59a23.44,23.44,0,1,1,46.88,0V939.8a11.33,11.33,0,0,0,6.42,3.1l78.91,13,.68.13c77.06,15,124.93,79.8,124.93,169v23.44A23.44,23.44,0,0,1,867.18,1171.89Z" fill="#fff"/><path d="M632.8,679.7a23.33,23.33,0,0,1-16.57-6.87L606.36,663c-23.73,11.61-59.81,16.74-114.18,16.74H398.43a23.44,23.44,0,0,1,0-46.88h93.75c69.11,0,93-9.12,100.82-16.78a23.42,23.42,0,0,1,32.93.21l23.44,23.43a23.46,23.46,0,0,1-16.57,40Z" fill="#fff"/><path d="M562.49,937.51C459.1,937.51,375,853.4,375,750V656.26c0-103.39,84.11-187.5,187.5-187.5S750,552.87,750,656.26V750C750,853.4,665.88,937.51,562.49,937.51Zm0-421.88c-77.54,0-140.62,63.09-140.62,140.63V750c0,77.54,63.08,140.62,140.62,140.62S703.12,827.55,703.12,750V656.26C703.12,578.72,640,515.63,562.49,515.63Z" fill="#fff"/><path d="M562.49,1054.7c-56.36,0-117.19-44.81-117.19-117.19a23.44,23.44,0,0,1,46.88,0c0,43.43,36.5,70.31,70.31,70.31s70.31-26.88,70.31-70.31a23.44,23.44,0,1,1,46.88,0C679.68,1009.89,618.85,1054.7,562.49,1054.7Z" fill="#fff"/><path d="M1335.93,1406.26H609.37A70.4,70.4,0,0,1,539.05,1336v-46.88a23.44,23.44,0,0,1,23.44-23.43H820.31a23.44,23.44,0,0,1,0,46.87H585.93V1336a23.47,23.47,0,0,0,23.44,23.44H851.72l134.54-313.93a23.46,23.46,0,0,1,21.55-14.2h468.75a23.43,23.43,0,0,1,21.54,32.67l-140.62,328.13A23.44,23.44,0,0,1,1335.93,1406.26Zm-433.21-46.87h417.75L1441,1078.13H1023.26L902.72,1359.39Z" fill="#fff"/><path d="M468.74,1265.64H398.43A23.44,23.44,0,0,1,375,1242.2v-93.75a23.44,23.44,0,1,1,46.88,0v70.31h46.87a23.44,23.44,0,0,1,0,46.88Z" fill="#fff"/><path d="M1573.42,1258a110.56,110.56,0,1,1-110.55,110.55A110.69,110.69,0,0,1,1573.42,1258m0-20.91a131.47,131.47,0,1,0,131.47,131.46,131.46,131.46,0,0,0-131.47-131.46Z" fill="#fff"/><path d="M1598.27,1437.7l-31.91-56.35h-13.67v56.35h-29V1293.1H1578q16.79,0,28.59,5.91t17.71,16a44.91,44.91,0,0,1-2.38,48.27q-8.28,11.49-24.65,15.85l34.6,58.62Zm-45.58-78.1h24.24q11.8,0,17.61-5.69t5.8-15.85q0-9.94-5.8-15.44t-17.61-5.49h-24.24Z" fill="#fff"/></g></svg>